<svg id="dashboard" xmlns="http://www.w3.org/2000/svg" width="24.937" height="24.937" viewBox="0 0 24.937 24.937">
  <path id="Path_10" data-name="Path 10" d="M9.611,8.312H1.818A1.82,1.82,0,0,1,0,6.494V1.818A1.82,1.82,0,0,1,1.818,0H9.611A1.82,1.82,0,0,1,11.43,1.818V6.494A1.82,1.82,0,0,1,9.611,8.312ZM1.818,1.559a.26.26,0,0,0-.26.26V6.494a.26.26,0,0,0,.26.26H9.611a.26.26,0,0,0,.26-.26V1.818a.26.26,0,0,0-.26-.26Zm0,0" transform="translate(0 0)" fill="#777"/>
  <path id="Path_11" data-name="Path 11" d="M9.611,227.879H1.818A1.82,1.82,0,0,1,0,226.06v-10.91a1.82,1.82,0,0,1,1.818-1.818H9.611a1.82,1.82,0,0,1,1.818,1.818v10.91A1.82,1.82,0,0,1,9.611,227.879ZM1.818,214.891a.26.26,0,0,0-.26.26v10.91a.26.26,0,0,0,.26.26H9.611a.26.26,0,0,0,.26-.26v-10.91a.26.26,0,0,0-.26-.26Zm0,0" transform="translate(0 -202.942)" fill="#777"/>
  <path id="Path_12" data-name="Path 12" d="M286.943,349.645h-7.793a1.82,1.82,0,0,1-1.818-1.818v-4.676a1.82,1.82,0,0,1,1.818-1.818h7.793a1.82,1.82,0,0,1,1.818,1.818v4.676A1.82,1.82,0,0,1,286.943,349.645Zm-7.793-6.754a.26.26,0,0,0-.26.26v4.676a.26.26,0,0,0,.26.26h7.793a.26.26,0,0,0,.26-.26v-4.676a.26.26,0,0,0-.26-.26Zm0,0" transform="translate(-263.825 -324.707)" fill="#777"/>
  <path id="Path_13" data-name="Path 13" d="M286.943,14.547h-7.793a1.82,1.82,0,0,1-1.818-1.818V1.818A1.82,1.82,0,0,1,279.151,0h7.793a1.82,1.82,0,0,1,1.818,1.818v10.91A1.82,1.82,0,0,1,286.943,14.547ZM279.151,1.559a.26.26,0,0,0-.26.26v10.91a.26.26,0,0,0,.26.26h7.793a.26.26,0,0,0,.26-.26V1.818a.26.26,0,0,0-.26-.26Zm0,0" transform="translate(-263.825 0)" fill="#777"/>
</svg>
