<svg xmlns="http://www.w3.org/2000/svg" width="24.112" height="25.437" viewBox="0 0 24.112 25.437">
  <g id="graphic" transform="translate(0.25 0.25)">
    <g id="Group_40" data-name="Group 40" transform="translate(0 7.143)">
      <g id="Group_39" data-name="Group 39">
        <path id="Path_16" data-name="Path 16" d="M36.726,163.474H35.658V147.963a1.311,1.311,0,0,0-1.309-1.309H31.961a1.311,1.311,0,0,0-1.309,1.309v15.511H27.939v-8.483a1.311,1.311,0,0,0-1.309-1.309H24.242a1.311,1.311,0,0,0-1.309,1.309v8.483H20.22v-4.393a1.311,1.311,0,0,0-1.309-1.309H16.523a1.311,1.311,0,0,0-1.309,1.309v4.393H14.088a.487.487,0,0,0,0,.974H36.726a.487.487,0,0,0,0-.974Zm-17.48,0H16.188v-4.393a.336.336,0,0,1,.335-.335h2.388a.336.336,0,0,1,.335.335Zm7.719,0H23.907v-8.483a.336.336,0,0,1,.335-.335H26.63a.336.336,0,0,1,.335.335Zm7.719,0H31.626V147.963a.336.336,0,0,1,.335-.335h2.388a.336.336,0,0,1,.335.335Z" transform="translate(-13.601 -146.654)" fill="#777" stroke="#707070" stroke-width="0.5"/>
      </g>
    </g>
    <g id="Group_42" data-name="Group 42" transform="translate(4.176)">
      <g id="Group_41" data-name="Group 41">
        <path id="Path_17" data-name="Path 17" d="M117.226.512A.485.485,0,0,0,116.715,0h-2.97a.487.487,0,1,0,0,.974h1.819l-4.815,4.815-1.816-1.816a.487.487,0,0,0-.689,0l-8.756,8.756a.487.487,0,0,0,.689.689l8.411-8.411L110.4,6.822a.487.487,0,0,0,.689,0l5.159-5.159V3.31a.487.487,0,1,0,.974,0V.536C117.227.528,117.226.52,117.226.512Z" transform="translate(-99.346)" fill="#777" stroke="#707070" stroke-width="0.5"/>
      </g>
    </g>
    <g id="Group_44" data-name="Group 44" transform="translate(2.535 14.286)">
      <g id="Group_43" data-name="Group 43">
        <circle id="Ellipse_5" data-name="Ellipse 5" cx="0.487" cy="0.487" r="0.487" fill="#777" stroke="#707070" stroke-width="0.5"/>
      </g>
    </g>
  </g>
</svg>
