<svg xmlns="http://www.w3.org/2000/svg" width="22.5" height="22.5" viewBox="0 0 22.5 22.5">
  <g id="logout" transform="translate(0.25 0.25)">
    <g id="Group_46" data-name="Group 46">
      <g id="Group_45" data-name="Group 45">
        <path id="Path_20" data-name="Path 20" d="M14.208,16.5a.458.458,0,0,0-.458.458v3.208a.918.918,0,0,1-.917.917h-11a.918.918,0,0,1-.917-.917V1.833A.918.918,0,0,1,1.833.917h11a.918.918,0,0,1,.917.917V5.042a.458.458,0,1,0,.917,0V1.833A1.835,1.835,0,0,0,12.833,0h-11A1.835,1.835,0,0,0,0,1.833V20.167A1.835,1.835,0,0,0,1.833,22h11a1.835,1.835,0,0,0,1.833-1.833V16.958A.458.458,0,0,0,14.208,16.5Z" fill="#777" stroke="#777" stroke-width="0.5"/>
        <path id="Path_21" data-name="Path 21" d="M144.351,133.165l-5.5-5.042a.458.458,0,0,0-.619.676l4.632,4.245H128.458a.458.458,0,0,0,0,.917h14.405l-4.632,4.245a.458.458,0,0,0,.619.676l5.5-5.042a.459.459,0,0,0,0-.676Z" transform="translate(-122.5 -122.503)" fill="#777" stroke="#777" stroke-width="0.5"/>
      </g>
    </g>
  </g>
</svg>
