<svg id="gear" xmlns="http://www.w3.org/2000/svg" width="24.937" height="24.937" viewBox="0 0 24.937 24.937">
  <path id="Path_14" data-name="Path 14" d="M23.127,9.284l-1.216-.206c-.108-.3-.231-.6-.366-.884l.716-1a2.169,2.169,0,0,0-.236-2.809L20.564,2.921a2.172,2.172,0,0,0-2.8-.235L16.755,3.4a10.022,10.022,0,0,0-.944-.389l-.2-1.192A2.176,2.176,0,0,0,13.457,0H11.392A2.175,2.175,0,0,0,9.24,1.819L9.029,3.057q-.448.164-.881.371L7.16,2.717a2.18,2.18,0,0,0-2.813.235L2.882,4.412A2.176,2.176,0,0,0,2.646,7.22l.728,1.022c-.134.289-.255.586-.361.889l-1.192.2A2.176,2.176,0,0,0,0,11.485V13.55A2.175,2.175,0,0,0,1.819,15.7l1.238.211c.109.3.233.593.371.881l-.709.986a2.169,2.169,0,0,0,.236,2.809L4.417,22.05a2.173,2.173,0,0,0,2.8.236l1.022-.728c.269.125.547.239.833.342l.2,1.216a2.176,2.176,0,0,0,2.153,1.821H13.5a2.176,2.176,0,0,0,2.152-1.82l.206-1.216c.3-.108.6-.231.884-.366l1,.714a2.179,2.179,0,0,0,2.812-.233l1.461-1.462a2.176,2.176,0,0,0,.236-2.809l-.717-1.007c.139-.294.262-.59.367-.883l1.214-.2A2.176,2.176,0,0,0,24.937,13.5V11.44a2.154,2.154,0,0,0-1.81-2.157Zm.349,4.217a.719.719,0,0,1-.6.711l-1.611.268a.788.788,0,0,0-.626.547,8.543,8.543,0,0,1-.584,1.408.787.787,0,0,0,.057.824l.949,1.333a.719.719,0,0,1-.078.928l-1.461,1.461a.718.718,0,0,1-.927.079l-1.327-.949a.787.787,0,0,0-.828-.058,8.6,8.6,0,0,1-1.41.584.788.788,0,0,0-.543.623l-.274,1.612a.719.719,0,0,1-.712.6H11.431a.719.719,0,0,1-.711-.6l-.268-1.611a.788.788,0,0,0-.542-.625,8.552,8.552,0,0,1-1.365-.561.788.788,0,0,0-.823.058L6.37,21.1a.69.69,0,0,1-.412.132.705.705,0,0,1-.508-.213L3.986,19.553a.713.713,0,0,1-.078-.923l.943-1.312a.786.786,0,0,0,.056-.835,8.355,8.355,0,0,1-.591-1.4A.789.789,0,0,0,3.7,14.54l-1.633-.278a.719.719,0,0,1-.6-.712V11.485a.719.719,0,0,1,.6-.712l1.591-.268a.787.787,0,0,0,.625-.549,8.423,8.423,0,0,1,.574-1.411A.788.788,0,0,0,4.8,7.721L3.837,6.373a.719.719,0,0,1,.077-.927L5.381,3.984l.005-.006a.7.7,0,0,1,.5-.208.708.708,0,0,1,.417.132l1.318.949a.786.786,0,0,0,.835.056,8.352,8.352,0,0,1,1.4-.591A.789.789,0,0,0,10.4,3.7l.279-1.633a.719.719,0,0,1,.712-.6h2.065a.719.719,0,0,1,.712.6l.268,1.591a.787.787,0,0,0,.55.625,8.5,8.5,0,0,1,1.463.6.788.788,0,0,0,.826-.057l1.336-.951a.69.69,0,0,1,.412-.132.706.706,0,0,1,.508.213L21,5.418a.714.714,0,0,1,.077.924l-.95,1.329a.788.788,0,0,0-.057.827,8.6,8.6,0,0,1,.584,1.41.788.788,0,0,0,.623.543l1.611.273h0a.7.7,0,0,1,.592.7Zm0,0" transform="translate(0 0)" fill="#777"/>
  <path id="Path_15" data-name="Path 15" d="M161.3,156.453a4.848,4.848,0,1,0,4.848,4.848A4.854,4.854,0,0,0,161.3,156.453Zm0,8.236a3.387,3.387,0,1,1,3.387-3.387A3.391,3.391,0,0,1,161.3,164.689Zm0,0" transform="translate(-148.833 -148.833)" fill="#777"/>
</svg>
