<svg id="user" xmlns="http://www.w3.org/2000/svg" width="20.805" height="24.937" viewBox="0 0 20.805 24.937">
  <path id="Path_18" data-name="Path 18" d="M93.038,12.012a5.812,5.812,0,0,0,4.247-1.76,5.812,5.812,0,0,0,1.759-4.247,5.812,5.812,0,0,0-1.76-4.247,6,6,0,0,0-8.493,0,5.812,5.812,0,0,0-1.76,4.246,5.812,5.812,0,0,0,1.76,4.247A5.814,5.814,0,0,0,93.038,12.012Zm-3.213-9.22a4.543,4.543,0,0,1,6.427,0,4.342,4.342,0,0,1,1.332,3.213A4.342,4.342,0,0,1,96.251,9.22a4.543,4.543,0,0,1-6.427,0,4.341,4.341,0,0,1-1.332-3.213,4.342,4.342,0,0,1,1.332-3.213Zm0,0" transform="translate(-82.793 0)"/>
  <path id="Path_19" data-name="Path 19" d="M20.754,254.446a14.835,14.835,0,0,0-.2-1.576,12.414,12.414,0,0,0-.388-1.584,7.826,7.826,0,0,0-.651-1.478,5.57,5.57,0,0,0-.982-1.28,4.33,4.33,0,0,0-1.411-.886,4.875,4.875,0,0,0-1.8-.326,1.828,1.828,0,0,0-.976.414c-.293.191-.635.412-1.017.656a5.827,5.827,0,0,1-1.316.58,5.109,5.109,0,0,1-3.219,0,5.81,5.81,0,0,1-1.315-.58c-.378-.242-.721-.463-1.018-.656a1.826,1.826,0,0,0-.976-.414,4.869,4.869,0,0,0-1.8.326,4.327,4.327,0,0,0-1.411.886,5.571,5.571,0,0,0-.982,1.28,7.841,7.841,0,0,0-.651,1.478,12.444,12.444,0,0,0-.387,1.584,14.734,14.734,0,0,0-.2,1.576c-.033.476-.05.972-.05,1.473a4.141,4.141,0,0,0,1.23,3.133A4.427,4.427,0,0,0,4.4,260.208H16.406a4.427,4.427,0,0,0,3.169-1.156,4.139,4.139,0,0,0,1.23-3.133c0-.5-.017-1-.05-1.473Zm-2.187,3.547a2.981,2.981,0,0,1-2.161.753H4.4a2.981,2.981,0,0,1-2.161-.753,2.7,2.7,0,0,1-.776-2.074c0-.467.015-.929.046-1.372a13.29,13.29,0,0,1,.183-1.419,10.975,10.975,0,0,1,.341-1.4,6.383,6.383,0,0,1,.53-1.2,4.129,4.129,0,0,1,.722-.946A2.872,2.872,0,0,1,4.221,249a3.363,3.363,0,0,1,1.151-.222c.051.027.142.079.29.175.3.2.647.419,1.029.664a7.241,7.241,0,0,0,1.652.738,6.57,6.57,0,0,0,4.118,0,7.248,7.248,0,0,0,1.653-.739c.392-.25.728-.467,1.029-.663.148-.1.239-.148.29-.175a3.365,3.365,0,0,1,1.151.222,2.876,2.876,0,0,1,.938.584,4.118,4.118,0,0,1,.722.946,6.361,6.361,0,0,1,.53,1.2,10.95,10.95,0,0,1,.341,1.4,13.4,13.4,0,0,1,.183,1.419h0c.031.441.047.9.047,1.371a2.7,2.7,0,0,1-.776,2.074Zm0,0" transform="translate(0 -235.271)"/>
</svg>
